# xmcd CD database file
#
# Track frame offsets:
#	182
#	25897
#	46275
#	69337
#	84242
#	106007
#	122315
#	143100
#	171762
#	182262
#	195177
#	214405
#	236527
#	260812
#
# Disc length: 3858 seconds
#
# Revision: 2
# Processed by: cddbd v1.4b41PL1 Copyright (c) Steve Scherf et al.
# Submitted via: Feurio! 1.51.6ß - http://www.feurio.com
#
DISCID=af0f100e
DTITLE=N.W.A. and The Posse - CD 1
DYEAR=1900
DGENRE=
TTITLE0=Eazy E - Boyz-N-The Hood
TTITLE1=N.W.A. - 8 Ball
TTITLE2=The Fila Fresh Crew - Dunk The Funk
TTITLE3=Rappingstine - Scream
TTITLE4=The Fila Fresh Crew - Drink It Up
TTITLE5=N.W.A. - Panic Zone
TTITLE6=Eazy E and Ron-De-Vu - L.A. Is The Place
TTITLE7=N.W.A. - Dope Man
TTITLE8=The Fila Fresh Crew - Tuffest Man Alive
TTITLE9=Eazy E and Ron-De-Vu - Fat Girl
TTITLE10=The Fila Fresh Crew - 3-The Hard way
TTITLE11=N.W.A. - 8 Ball (R.E.M.I.X.)
TTITLE12=N.W.A. - Dope Man (R.E.M.I.X.)
TTITLE13=N.W.A. - Boyz-N-The Hood (R.E.M.I.X.)
EXTD=
EXTT0=
EXTT1=
EXTT2=
EXTT3=
EXTT4=
EXTT5=
EXTT6=
EXTT7=
EXTT8=
EXTT9=
EXTT10=
EXTT11=
EXTT12=
EXTT13=
PLAYORDER=
